# Made using Asset Forge (www.assetforge.io) version 1.2.1 

mtllib Accelerator.mtl 

v 0.6532482 -0.5805456 -1.360829
v 0.5827439 -0.448254 -1.547172
v 0.1467518 -0.5805456 -1.360829
v 0.2172561 -0.448254 -1.547172
v 0.6532482 -0.5805456 -1.638953
v 0.1467518 -0.5805456 -1.638953
v 0.03451219 -0.10536 -1.547172
v -0.1064964 -0.10536 -1.360829
v 0.9064963 -0.10536 -1.638953
v 0.6532482 0.3698256 -1.638953
v 0.9064963 -0.10536 -1.360829
v 0.6532482 0.3698256 -1.360829
v 0.7654878 -0.10536 -1.547172
v 0.5827439 0.237534 -1.547172
v 0.1467518 0.3698256 -1.360829
v 0.2172561 0.237534 -1.547172
v 0.1467518 0.3698256 -1.638953
v -0.1064964 -0.10536 -1.638953
v 0.2204021 -0.4423509 1.438953
v 0.04080421 -0.10536 1.438953
v 0.5795978 -0.4423509 1.438953
v 0.7591957 -0.10536 1.438953
v 0.5795978 0.231631 1.438953
v 0.2204021 0.231631 1.438953
v 0.7388 -0.7410719 -1.638953
v 0.06119996 -0.7410719 -1.638953
v -0.2776 -0.10536 -1.638953
v 0.06119996 0.530352 -1.638953
v 1.0776 -0.10536 -1.638953
v 0.7388 0.530352 -1.638953
v 0.8235 0.68928 -0.9158304
v 0.7218599 0.4985664 0.9012463
v -0.02350003 0.68928 -0.9158304
v 0.07813999 0.4985664 0.9012463
v 0.7218599 -0.7092863 0.9012463
v 1.04372 -0.10536 0.9012463
v 0.8235 -0.9 -0.9158304
v 1.247 -0.10536 -0.9158304
v -0.02350003 -0.9 -0.9158304
v -0.447 -0.10536 -0.9158304
v 0.07813999 -0.7092863 0.9012463
v -0.24372 -0.10536 0.9012463
vn 0 -1.848335 -1.786051
vn 0 -1.848335 -1.786051
vn 0 2.4 0
vn -1.461619 -0.9270313 -1.791585
vn -1.461619 -0.9270313 -1.791585
vn -1.901916 -1.206289 0
vn 1.461619 0.9270313 -1.791585
vn 1.461619 0.9270313 -1.791585
vn -1.901916 1.206289 0
vn 0 1.848335 -1.786051
vn 0 1.848335 -1.786051
vn 0 -2.4 0
vn 1.901916 -1.206289 0
vn 1.901916 1.206289 0
vn 1.461619 -0.9270313 -1.791585
vn 1.461619 -0.9270313 -1.791585
vn -1.461619 0.9270313 -1.791585
vn -1.461619 0.9270313 -1.791585
vn 0 0 -2.8
vn 0 0 2.8
vn 0 2.382207 0.3403153
vn 1.643639 -1.042477 1.408806
vn 1.643639 -1.042477 1.408806
vn 1.887669 -1.197253 0.3420724
vn 1.887669 -1.197253 0.3420723
vn -1.887669 -1.197253 0.3420724
vn -1.887669 -1.197253 0.3420723
vn -1.887669 1.197253 0.3420724
vn -1.887669 1.197253 0.3420723
vn 0 -2.382207 0.3403153
vn 0 -2.382207 0.3403153
vn 0 2.076821 1.40331
vn 1.643639 1.042477 1.408806
vn 1.643639 1.042477 1.408806
vn -1.643639 1.042477 1.408806
vn -1.643639 1.042477 1.408806
vn -1.643639 -1.042477 1.408806
vn -1.643639 -1.042477 1.408806
vn 1.887669 1.197253 0.3420724
vn 1.887669 1.197253 0.3420723
vn 0 -2.076821 1.40331
vn 0 2.324793 -0.695451
vn 0 -2.324793 -0.695451
vn 1.84172 1.16811 -0.6988692
vn 1.84172 -1.16811 -0.6988692
vn -1.84172 -1.16811 -0.6988692
vn -1.84172 1.16811 -0.6988692
vt -0.6532482 1.360829
vt -0.5827439 1.547172
vt -0.1467518 1.360829
vt -0.2172561 1.547172
vt -0.6532482 -1.638953
vt -0.6532482 -1.360829
vt -0.1467518 -1.638953
vt -0.1467518 -1.360829
vt -1.547172 -0.448254
vt -1.547172 -0.10536
vt -1.360829 -0.5805456
vt -1.360829 -0.10536
vt -1.638953 -0.10536
vt -1.638953 0.3698256
vt -1.360829 0.3698256
vt 1.547172 -0.10536
vt 1.360829 -0.10536
vt 1.547172 0.237534
vt 1.360829 0.3698256
vt -1.638953 -0.5805456
vt -0.5827439 -1.547172
vt -0.2172561 -1.547172
vt -0.6532482 1.638953
vt -0.1467518 1.638953
vt 1.638953 -0.10536
vt 1.638953 0.3698256
vt 1.638953 -0.5805456
vt 1.360829 -0.5805456
vt 1.547172 -0.448254
vt -1.547172 0.237534
vt -0.2172561 -0.448254
vt -0.5827439 -0.448254
vt -0.03451218 -0.10536
vt -0.7654878 -0.10536
vt -0.2172561 0.237534
vt -0.5827439 0.237534
vt 0.2204021 -0.4423509
vt 0.04080421 -0.10536
vt 0.5795979 -0.4423509
vt 0.7591957 -0.10536
vt 0.5795979 0.231631
vt 0.2204021 0.231631
vt -0.7388 -0.7410719
vt -0.1467518 -0.5805456
vt -0.06119997 -0.7410719
vt 0.2776 -0.10536
vt 0.1064964 -0.10536
vt -0.06119997 0.5303521
vt -0.1467518 0.3698256
vt -0.6532482 0.3698256
vt -1.0776 -0.10536
vt -0.6532482 -0.5805456
vt -0.9064963 -0.10536
vt -0.7388 0.5303521
vt -0.8235 -0.9158304
vt -0.7218599 0.9012464
vt 0.02350002 -0.9158304
vt -0.07814 0.9012464
vt -0.9012464 -0.7092863
vt -1.438953 -0.4423509
vt -0.9012464 -0.10536
vt -1.438953 -0.10536
vt 0.9158304 -0.9
vt 0.9158304 -0.10536
vt -0.9158304 -0.9
vt -0.9158304 -0.10536
vt 0.9012464 -0.7092863
vt 0.9012464 -0.10536
vt -0.9158304 0.68928
vt 0.9012464 0.4985664
vt -0.8235 0.9158304
vt 0.02350002 0.9158304
vt -0.7218599 -0.9012464
vt -0.07814 -0.9012464
vt -0.5795979 1.438953
vt -0.2204021 1.438953
vt -0.9012464 0.4985664
vt -1.438953 0.231631
vt 1.438953 -0.10536
vt 1.438953 0.231631
vt 1.438953 -0.4423509
vt 0.9158304 0.68928
vt -0.5795979 -1.438953
vt -0.2204021 -1.438953
vt -0.7388 -1.638953
vt -0.06119997 -1.638953
vt -0.7388 1.638953
vt -0.06119997 1.638953
vt 1.638953 0.5303521
vt 1.638953 -0.7410719
vt -1.638953 -0.7410719
vt -1.638953 0.5303521

usemtl customMaterial4
usemap customMaterial4
f 3/3/1 2/2/1 1/1/1
f 2/2/1 3/3/1 4/4/2
f 6/7/3 1/6/3 5/5/3
f 1/6/3 6/7/3 3/8/3
f 3/11/5 7/10/5 4/9/4
f 7/10/5 3/11/5 8/12/5
f 11/12/6 10/14/6 9/13/6
f 10/14/6 11/12/6 12/15/6
f 14/18/8 11/17/8 13/16/7
f 11/17/8 14/18/8 12/19/8
f 1/11/9 9/13/9 5/20/9
f 9/13/9 1/11/9 11/12/9
f 14/21/10 15/8/10 12/6/10
f 15/8/10 14/21/10 16/22/11
f 15/3/12 10/23/12 12/1/12
f 10/23/12 15/3/12 17/24/12
f 17/26/13 8/17/13 18/25/13
f 8/17/13 17/26/13 15/19/13
f 18/25/14 3/28/14 6/27/14
f 3/28/14 18/25/14 8/17/14
f 13/16/16 1/28/16 2/29/15
f 1/28/16 13/16/16 11/17/16
f 8/12/18 16/30/18 7/10/17
f 16/30/18 8/12/18 15/15/18

usemtl customMaterial5
usemap customMaterial5
f 7/33/19 2/32/19 4/31/19
f 2/32/19 7/33/19 13/34/19
f 13/34/19 7/33/19 16/35/19
f 13/34/19 16/35/19 14/36/19
f 21/39/20 20/38/20 19/37/20
f 20/38/20 21/39/20 22/40/20
f 20/38/20 22/40/20 23/41/20
f 20/38/20 23/41/20 24/42/20
f 26/45/19 6/44/19 25/43/19
f 6/44/19 26/45/19 27/46/19
f 6/44/19 27/46/19 18/47/19
f 17/49/19 27/46/19 28/48/19
f 18/47/19 27/46/19 17/49/19
f 17/49/19 28/48/19 10/50/19
f 25/43/19 5/52/19 29/51/19
f 5/52/19 25/43/19 6/44/19
f 29/51/19 5/52/19 9/53/19
f 29/51/19 9/53/19 30/54/19
f 30/54/19 9/53/19 10/50/19
f 30/54/19 10/50/19 28/48/19
f 33/57/21 32/56/21 31/55/21
f 32/56/21 33/57/21 34/58/21
f 36/61/23 21/60/23 35/59/22
f 21/60/23 36/61/23 22/62/23
f 38/64/24 35/59/24 37/63/24
f 35/59/24 38/64/24 36/61/25
f 41/67/26 40/66/26 39/65/26
f 40/66/26 41/67/26 42/68/27
f 42/68/28 33/69/28 40/66/28
f 33/69/28 42/68/28 34/70/29
f 35/73/30 39/72/30 37/71/30
f 39/72/30 35/73/30 41/74/31
f 34/58/32 23/75/32 32/56/32
f 23/75/32 34/58/32 24/76/32
f 32/77/34 22/62/34 36/61/33
f 22/62/34 32/77/34 23/78/34
f 20/79/36 34/70/36 42/68/35
f 34/70/36 20/79/36 24/80/36
f 19/81/38 42/68/38 41/67/37
f 42/68/38 19/81/38 20/79/38
f 31/82/39 36/61/39 38/64/39
f 36/61/39 31/82/39 32/77/40
f 21/83/41 41/74/41 35/73/41
f 41/74/41 21/83/41 19/84/41

usemtl customMaterial4
usemap customMaterial4
f 30/85/42 33/57/42 31/55/42
f 33/57/42 30/85/42 28/86/42
f 39/72/43 25/87/43 37/71/43
f 25/87/43 39/72/43 26/88/43
f 30/89/44 38/64/44 29/25/44
f 38/64/44 30/89/44 31/82/44
f 29/25/45 37/63/45 25/90/45
f 37/63/45 29/25/45 38/64/45
f 39/65/46 27/13/46 26/91/46
f 27/13/46 39/65/46 40/66/46
f 40/66/47 28/92/47 27/13/47
f 28/92/47 40/66/47 33/69/47
