# Made using Asset Forge (www.assetforge.io) version 1.2.1 

mtllib JumpRamp.mtl 

v 0.62375 0.1178255 -1.774946
v 0.62375 0.828427 0.7686836
v -0.7237501 0.1178255 -1.774946
v -0.7237501 0.828427 0.7686836
v 0.62375 0.07469927 -1.721815
v 0.62375 0.7853007 0.8218151
v -0.7237501 0.07469927 -1.721815
v -0.7237501 0.7853007 0.8218151
v 0.56875 0.7233333 0.6
v 0.5 0.76 0.73125
v -0.6 0.76 0.73125
v -0.66875 0.7233333 0.6
v -0.66875 0.1366667 -1.5
v 0.56875 0.1366667 -1.5
v 0.5 0.1 -1.63125
v -0.6 0.1 -1.63125
v -0.500633 0.3607084 0.73125
v 0.345633 0.4107084 0.73125
v 0.400633 0.3607084 0.73125
v 0.400633 0.6571664 0.73125
v 0.345633 0.6071663 0.73125
v -0.445633 0.6071663 0.73125
v -0.445633 0.4107084 0.73125
v -0.500633 0.6571664 0.73125
v 0.345633 0.6071663 0.6472499
v -0.445633 0.6071663 0.6472499
v -0.445633 0.4107084 0.6472499
v 0.345633 0.4107084 0.6472499
v 0.56875 0 -1.5
v 0.56875 0 0.6
v 0.5 0 0.73125
v -0.6 0 0.73125
v -0.66875 0 0.6
v 0.5 0 -1.63125
v -0.6 0 -1.63125
v -0.66875 0 -1.5
vn 0 0.8625249 -1.062631
vn 1.1 0 0
vn 0 -0.5060146 -1.811302
vn -1.1 0 0
vn 0 0.5060146 1.811302
vn 0 -0.8625249 1.062631
vn 0 -0.8625249 1.062631
vn 0 0 2.1
vn 0 -1 0
vn 0 1 0
vn 0.7778175 0 1.484924
vn -0.7778175 0 1.484924
vn 0.7778175 0 -1.484924
vn 0 0 -2.1
vn -0.7778175 0 -1.484924
vt -0.62375 -1.774947
vt -0.62375 0.7686836
vt 0.7237501 -1.774947
vt 0.7237501 0.7686836
vt 1.774947 0.1178255
vt 1.721815 0.07469927
vt -0.7686836 0.828427
vt -0.821815 0.7853007
vt 0.7237501 1.721815
vt -0.62375 1.721815
vt 0.7237501 1.774947
vt -0.62375 1.774947
vt -1.774947 0.1178255
vt 0.7686836 0.828427
vt -1.721815 0.07469927
vt 0.821815 0.7853007
vt -0.62375 0.821815
vt 0.7237501 0.821815
vt -0.56875 -0.6
vt -0.62375 -0.821815
vt -0.5 -0.7312499
vt 0.7237501 -0.821815
vt 0.6 -0.7312499
vt 0.66875 -0.6
vt 0.66875 1.5
vt -0.56875 1.5
vt -0.5 1.63125
vt 0.6 1.63125
vt -0.56875 -1.5
vt -0.56875 0.6
vt -0.5 -1.63125
vt -0.5 0.7312499
vt 0.6 -1.63125
vt 0.6 0.7312499
vt 0.66875 -1.5
vt 0.66875 0.6
vt -0.500633 0.3607084
vt 0.345633 0.4107084
vt 0.400633 0.3607084
vt 0.400633 0.6571664
vt 0.345633 0.6071663
vt -0.445633 0.6071663
vt -0.445633 0.4107084
vt -0.500633 0.6571664
vt -0.345633 -0.7312499
vt -0.345633 -0.6472499
vt 0.445633 -0.7312499
vt 0.445633 -0.6472499
vt -0.6472499 0.6071663
vt -0.6472499 0.4107084
vt -0.7312499 0.6071663
vt -0.7312499 0.4107084
vt -0.345633 0.6472499
vt -0.345633 0.7312499
vt 0.445633 0.6472499
vt 0.445633 0.7312499
vt 0.6472499 0.4107084
vt 0.6472499 0.6071663
vt 0.7312499 0.4107084
vt 0.7312499 0.6071663
vt 1.5 0.1366667
vt 1.5 0
vt -0.6 0.7233333
vt -0.6 0
vt -0.7312499 0.76
vt -0.7312499 0
vt -0.6 0
vt 0.5 0
vt 0.5 0.76
vt -0.6 0.76
vt 0.7312499 0
vt 0.6 0
vt 0.7312499 0.76
vt 0.6 0.7233333
vt 1.63125 0
vt 1.63125 0.1
vt -1.5 0
vt -1.5 0.1366667
vt 0.6 0
vt -0.5 0
vt 0.6 0.1
vt -0.5 0.1
vt -1.63125 0
vt -1.63125 0.1

usemtl darkStone (Instance)
usemap darkStone (Instance)
f 3/3/1 2/2/1 1/1/1
f 2/2/1 3/3/1 4/4/1
f 2/7/2 5/6/2 1/5/2
f 5/6/2 2/7/2 6/8/2
f 3/11/3 5/10/3 7/9/3
f 5/10/3 3/11/3 1/12/3
f 7/15/4 4/14/4 3/13/4
f 4/14/4 7/15/4 8/16/4
f 2/2/5 8/18/5 6/17/5
f 8/18/5 2/2/5 4/4/5
f 6/20/6 9/19/6 5/10/6
f 9/19/6 6/20/6 10/21/7
f 10/21/7 6/20/6 8/22/6
f 10/21/7 8/22/6 11/23/6
f 11/23/6 8/22/6 12/24/6
f 12/24/6 8/22/6 13/25/6
f 14/26/6 5/10/6 9/19/6
f 15/27/7 5/10/6 14/26/6
f 5/10/6 15/27/7 7/9/6
f 7/9/6 13/25/6 8/22/6
f 7/9/6 15/27/7 16/28/6
f 7/9/6 16/28/6 13/25/6
f 15/31/1 9/30/1 14/29/1
f 9/30/1 15/31/1 10/32/1
f 10/32/1 15/31/1 16/33/1
f 10/32/1 16/33/1 11/34/1
f 11/34/1 16/33/1 13/35/1
f 11/34/1 13/35/1 12/36/1

usemtl glass (Instance)
usemap glass (Instance)
f 19/39/8 18/38/8 17/37/8
f 18/38/8 19/39/8 20/40/8
f 18/38/8 20/40/8 21/41/8
f 21/41/8 20/40/8 22/42/8
f 23/43/8 17/37/8 18/38/8
f 17/37/8 23/43/8 24/44/8
f 24/44/8 23/43/8 22/42/8
f 24/44/8 22/42/8 20/40/8
f 22/47/9 25/46/9 21/45/9
f 25/46/9 22/47/9 26/48/9
f 22/51/2 27/50/2 26/49/2
f 27/50/2 22/51/2 23/52/2
f 27/55/10 18/54/10 28/53/10
f 18/54/10 27/55/10 23/56/10
f 18/59/4 25/58/4 28/57/4
f 25/58/4 18/59/4 21/60/4

usemtl glass (Instance)
usemap glass (Instance)
f 9/63/2 29/62/2 14/61/2
f 29/62/2 9/63/2 30/64/2
f 10/65/11 30/64/11 9/63/11
f 30/64/11 10/65/11 31/66/11
f 31/68/8 19/39/8 32/67/8
f 19/39/8 31/68/8 10/69/8
f 19/39/8 10/69/8 20/40/8
f 20/40/8 10/69/8 24/44/8
f 17/37/8 32/67/8 19/39/8
f 32/67/8 17/37/8 11/70/8
f 11/70/8 17/37/8 24/44/8
f 11/70/8 24/44/8 10/69/8
f 11/73/12 33/72/12 32/71/12
f 33/72/12 11/73/12 12/74/12
f 15/76/13 29/62/13 34/75/13
f 29/62/13 15/76/13 14/61/13
f 31/21/9 29/26/9 30/19/9
f 29/26/9 31/21/9 34/27/9
f 34/27/9 31/21/9 32/23/9
f 34/27/9 32/23/9 35/28/9
f 35/28/9 32/23/9 33/24/9
f 35/28/9 33/24/9 36/25/9
f 33/72/4 13/78/4 36/77/4
f 13/78/4 33/72/4 12/74/4
f 16/81/14 34/80/14 35/79/14
f 34/80/14 16/81/14 15/82/14
f 36/77/15 16/84/15 35/83/15
f 16/84/15 36/77/15 13/78/15

usemtl glass (Instance)
usemap glass (Instance)
f 25/41/8 27/43/8 28/38/8
f 27/43/8 25/41/8 26/42/8
