# Made using Asset Forge (www.assetforge.io) version 1.2.1 

mtllib Roadblock.mtl 

v 0.2106 0 0.5
v -0.2106 0 0.5
v 0.2106 0.1134 0.5
v -0.2106 0.1134 0.5
v 0.141102 0.2673 0.5
v -0.141102 0.2673 0.5
v 0.141102 0.3888 0.5
v -0.141102 0.3888 0.5
v 0.141102 0.2673 -0.5
v 0.2106 0.1134 -0.5
v -0.2106 0 0.3376068
v 0.2106 0 0.3376068
v -0.2106 0.05669999 0.3376068
v 0.2106 0.05669999 0.3376068
v -0.2106 0 -0.1752137
v 0.2106 0 -0.1752137
v -0.2106 0.05669999 -0.1752137
v 0.2106 0.05669999 -0.1752137
v 0.2106 0 -0.3376068
v 0.2106 0 -0.5
v -0.2106 0 -0.3376068
v -0.2106 0 -0.5
v 0.141102 0.3888 -0.5
v -0.141102 0.3888 -0.5
v 0.2106 0.05669999 -0.3376068
v -0.2106 0.05669999 -0.3376068
v 0.2106 0.05669999 0.1752137
v 0.2106 0 0.1752137
v -0.2106 0.1134 -0.5
v -0.141102 0.2673 -0.5
v -0.2106 0 0.1752137
v -0.2106 0.05669999 0.1752137
vn 0 0 1
vn 0.9113822 0.411561 0
vn 0 0 -1
vn 0 -1 0
vn 0 1 0
vn 1 0 0
vn -0.9113822 0.411561 0
vn -1 0 0
vt 0.2106 0
vt -0.2106 0
vt 0.2106 0.1134
vt -0.2106 0.1134
vt 0.141102 0.2673
vt -0.141102 0.2673
vt 0.141102 0.3888
vt -0.141102 0.3888
vt 0.5 0.2673
vt 0.5 0.1134
vt -0.5 0.2673
vt -0.5 0.1134
vt 0.2106 0.05669999
vt -0.2106 0.05669999
vt -0.2106 0.3376068
vt -0.2106 0.5
vt 0.2106 0.3376068
vt 0.2106 0.5
vt -0.141102 -0.5
vt -0.141102 0.5
vt 0.141102 -0.5
vt 0.141102 0.5
vt -0.2106 0.1752137
vt 0.2106 0.1752137
vt -0.2106 -0.5
vt -0.2106 -0.3376068
vt 0.2106 -0.5
vt 0.2106 -0.3376068
vt 0.5 0
vt 0.3376068 0.05669999
vt 0.1752137 0.05669999
vt 0.1752137 0
vt -0.1752137 0.05669999
vt -0.3376068 0.05669999
vt -0.3376068 0
vt -0.5 0
vt -0.1752137 0
vt 0.3376068 0
vt -0.5 0.3888
vt 0.5 0.3888
vt -0.2106 -0.1752137
vt 0.2106 -0.1752137

usemtl customMaterial1
usemap customMaterial1
f 3/3/1 2/2/1 1/1/1
f 2/2/1 3/3/1 4/4/1
f 4/4/1 3/3/1 5/5/1
f 4/4/1 5/5/1 6/6/1
f 6/6/1 5/5/1 7/7/1
f 6/6/1 7/7/1 8/8/1
f 5/11/2 10/10/2 9/9/2
f 10/10/2 5/11/2 3/12/2
f 13/13/3 12/2/3 11/1/3
f 12/2/3 13/13/3 14/14/3
f 17/13/3 16/2/3 15/1/3
f 16/2/3 17/13/3 18/14/3
f 21/17/4 20/16/4 19/15/4
f 20/16/4 21/17/4 22/18/4
f 24/21/5 7/20/5 23/19/5
f 7/20/5 24/21/5 8/22/5
f 17/24/4 25/15/4 18/23/4
f 25/15/4 17/24/4 26/17/4
f 2/27/4 12/26/4 1/25/4
f 12/26/4 2/27/4 11/28/4
f 10/10/6 25/30/6 20/29/6
f 25/30/6 10/10/6 3/12/6
f 25/30/6 3/12/6 18/31/6
f 18/31/6 3/12/6 16/32/6
f 16/32/6 3/12/6 27/33/6
f 27/33/6 3/12/6 14/34/6
f 14/34/6 3/12/6 12/35/6
f 12/35/6 3/12/6 1/36/6
f 28/37/6 16/32/6 27/33/6
f 19/38/6 20/29/6 25/30/6
f 4/10/7 30/11/7 29/12/7
f 30/11/7 4/10/7 6/9/7
f 27/13/1 31/2/1 28/1/1
f 31/2/1 27/13/1 32/14/1
f 25/13/1 21/2/1 19/1/1
f 21/2/1 25/13/1 26/14/1
f 31/32/8 17/33/8 15/37/8
f 32/31/8 17/33/8 31/32/8
f 4/10/8 17/33/8 32/31/8
f 4/10/8 26/34/8 17/33/8
f 29/12/8 26/34/8 4/10/8
f 29/12/8 21/35/8 26/34/8
f 21/35/8 29/12/8 22/36/8
f 4/10/8 32/31/8 13/30/8
f 4/10/8 13/30/8 2/29/8
f 2/29/8 13/30/8 11/38/8
f 29/3/3 20/2/3 22/1/3
f 20/2/3 29/3/3 10/4/3
f 10/4/3 29/3/3 30/5/3
f 10/4/3 30/5/3 9/6/3
f 9/6/3 30/5/3 24/7/3
f 9/6/3 24/7/3 23/8/3
f 6/9/8 24/39/8 30/11/8
f 24/39/8 6/9/8 8/40/8
f 7/39/6 9/9/6 23/40/6
f 9/9/6 7/39/6 5/11/6
f 13/28/4 27/41/4 14/26/4
f 27/41/4 13/28/4 32/42/4
f 31/42/4 16/23/4 28/41/4
f 16/23/4 31/42/4 15/24/4
