# Made using Asset Forge (www.assetforge.io) version 1.2.1 

mtllib SquareBlock.mtl 

v 0.5625 0 -0.5
v 0.5625 0 -1.5
v 0.5 0 -0.4375
v 0.5 0 -1.5625
v -0.5 0 -0.4375
v -0.5 0 -1.5625
v -0.5625 0 -0.5
v -0.5625 0 -1.5
v 0.5625 0.975 -1.5
v 0.5625 0.975 -0.5
v 0.5 0.975 -1.5625
v 0.5 0.975 -0.4375
v -0.5 0.975 -1.5625
v -0.5 0.975 -0.4375
v -0.5625 0.975 -1.5
v -0.5625 0.975 -0.5
vn 0 -15 0
vn 0 15 0
vn 0 0 1
vn 0.7071068 0 0.7071068
vn 1 0 0
vn 0.7071068 0 -0.7071068
vn -0.7071068 0 -0.7071068
vn -1 0 0
vn -0.7071068 0 0.7071068
vn 0 0 -1
vt -0.5625 0.5
vt -0.5625 1.5
vt -0.5 0.4375
vt -0.5 1.5625
vt 0.5 0.4375
vt 0.5 1.5625
vt 0.5625 0.5
vt 0.5625 1.5
vt -0.5625 -1.5
vt -0.5625 -0.5
vt -0.5 -1.5625
vt -0.5 -0.4375
vt 0.5 -1.5625
vt 0.5 -0.4375
vt 0.5625 -1.5
vt 0.5625 -0.5
vt 0.5 0
vt -0.5 0
vt 0.5 0.975
vt -0.5 0.975
vt 0.5625 0.975
vt 0.5625 0
vt 1.5 0.975
vt 1.5 0
vt -0.5625 0
vt -0.5625 0.975
vt -1.5 0
vt -1.5 0.975

usemtl stone (Instance)
usemap stone (Instance)
f 3/3/1 2/2/1 1/1/1
f 2/2/1 3/3/1 4/4/1
f 4/4/1 3/3/1 5/5/1
f 4/4/1 5/5/1 6/6/1
f 6/6/1 5/5/1 7/7/1
f 6/6/1 7/7/1 8/8/1
f 11/11/2 10/10/2 9/9/2
f 10/10/2 11/11/2 12/12/2
f 12/12/2 11/11/2 13/13/2
f 12/12/2 13/13/2 14/14/2
f 14/14/2 13/13/2 15/15/2
f 14/14/2 15/15/2 16/16/2
f 12/19/3 5/18/3 3/17/3
f 5/18/3 12/19/3 14/20/3
f 12/19/4 1/22/4 10/21/4
f 1/22/4 12/19/4 3/17/4
f 10/19/5 2/24/5 9/23/5
f 2/24/5 10/19/5 1/17/5
f 11/20/6 2/25/6 4/18/6
f 2/25/6 11/20/6 9/26/6
f 8/22/7 13/19/7 6/17/7
f 13/19/7 8/22/7 15/21/7
f 7/18/8 15/28/8 8/27/8
f 15/28/8 7/18/8 16/20/8
f 14/20/9 7/25/9 5/18/9
f 7/25/9 14/20/9 16/26/9
f 13/19/10 4/18/10 6/17/10
f 4/18/10 13/19/10 11/20/10
